<?xml version="1.0" encoding="UTF-8"?>
<svg width="76px" height="76px" viewBox="0 0 76 76" version="1.1" xmlns="http://www.w3.org/2000/svg" xmlns:xlink="http://www.w3.org/1999/xlink">
    <!-- Generator: Sketch 59.1 (86144) - https://sketch.com -->
    <title>Group 4</title>
    <desc>Created with Sketch.</desc>
    <g id="Page-1" stroke="none" stroke-width="1" fill="none" fill-rule="evenodd">
        <g id="media01" transform="translate(0.000000, -274.000000)" fill="#080D14" fill-rule="nonzero">
            <g id="Group-4" transform="translate(0.000000, 274.000000)">
                <polygon id="Path-Copy" points="51 34.12 38 46.6 25 34.12 27.86 31 38 40.75 48.14 31"></polygon>
                <path d="M38,76 C16.972332,76 0,58.8774704 0,38 C0,17.1225296 16.972332,0 38,0 C58.8774704,0 76,16.972332 76,38 C76,58.8774704 58.8774704,76 38,76 Z M38,4 C19.2307692,4 4,19.2307692 4,38 C4,56.7692308 19.2307692,72 38,72 C56.7692308,72 72,56.7692308 72,38 C72,19.2307692 56.7692308,4 38,4 Z" id="Shape-Copy"></path>
            </g>
        </g>
    </g>
</svg>