<?xml version="1.0" encoding="UTF-8"?>
<svg width="46px" height="12px" viewBox="0 0 46 12" version="1.1" xmlns="http://www.w3.org/2000/svg" xmlns:xlink="http://www.w3.org/1999/xlink">
    <!-- Generator: Sketch 59.1 (86144) - https://sketch.com -->
    <title>Path</title>
    <desc>Created with Sketch.</desc>
    <g id="Page-1" stroke="none" stroke-width="1" fill="none" fill-rule="evenodd">
        <g id="media01" transform="translate(-187.000000, -48.000000)" fill="#16FFBD" fill-rule="nonzero">
            <path d="M227.4,59.1 C224.6,59.1 222.3,56.8 222.3,54 C222.3,52 220.7,50.4 218.7,50.4 C216.7,50.4 215.1,52 215.1,54 C215.1,56.8 212.8,59.1 210,59.1 C207.2,59.1 204.9,56.8 204.9,54 C204.9,52 203.3,50.4 201.3,50.4 C199.3,50.4 197.7,52 197.7,54 C197.7,56.8 195.4,59.1 192.6,59.1 C189.8,59.1 187.5,56.8 187.5,54 C187.5,53.6 187.8,53.3 188.2,53.3 C188.6,53.3 188.9,53.6 188.9,54 C188.9,56 190.5,57.6 192.5,57.6 C194.5,57.6 196.1,56 196.1,54 C196.1,51.2 198.4,48.9 201.2,48.9 C204,48.9 206.3,51.2 206.3,54 C206.3,56 207.9,57.6 209.9,57.6 C211.9,57.6 213.5,56 213.5,54 C213.5,51.2 215.8,48.9 218.6,48.9 C221.4,48.9 223.7,51.2 223.7,54 C223.7,56 225.3,57.6 227.3,57.6 C229.3,57.6 230.9,56 230.9,54 C230.9,53.6 231.2,53.3 231.6,53.3 C232,53.3 232.3,53.6 232.3,54 C232.5,56.8 230.2,59.1 227.4,59.1 Z" id="Path"></path>
        </g>
    </g>
</svg>