<?xml version="1.0" encoding="UTF-8"?>
<svg width="52px" height="52px" viewBox="0 0 52 52" version="1.1" xmlns="http://www.w3.org/2000/svg" xmlns:xlink="http://www.w3.org/1999/xlink">
    <!-- Generator: Sketch 59.1 (86144) - https://sketch.com -->
    <title>Group</title>
    <desc>Created with Sketch.</desc>
    <g id="Page-1" stroke="none" stroke-width="1" fill="none" fill-rule="evenodd">
        <g id="media01" transform="translate(0.000000, -54.000000)" fill="#080D14" fill-rule="nonzero">
            <g id="Group" transform="translate(0.000000, 54.000000)">
                <path d="M30.9,20.1 L30.9,16.2 C29.5,16.2 29.9,16.1 28.5,16.1 C27.1,16.1 26.3,16.3 25.3,16.8 C24.4,17.3 24,17.8 23.6,18.5 C23.3,19.2 23.1,20.1 23.1,21.5 L23.1,22 L21.1,22 L21,25.9 L23,25.9 L23,35.8 L27,35.8 L27,25.9 L30.6,25.9 L31.1,22 L27.1,22 C27.1,22 26.8,20.8 27.4,20.2 C27.7,20 30.9,20.1 30.9,20.1 Z" id="Path"></path>
                <path d="M26,51.3 C12,51.3 0.7,39.9 0.7,26 C0.7,12.1 12,0.7 26,0.7 C39.9,0.7 51.3,12 51.3,26 C51.3,40 39.9,51.3 26,51.3 Z M26,3.9 C13.8,3.9 3.9,13.8 3.9,26 C3.9,38.2 13.8,48.1 26,48.1 C38.2,48.1 48.1,38.2 48.1,26 C48.1,13.8 38.2,3.9 26,3.9 Z" id="Shape"></path>
            </g>
        </g>
    </g>
</svg>