<?xml version="1.0" encoding="UTF-8"?>
<svg width="46px" height="12px" viewBox="0 0 46 12" version="1.1" xmlns="http://www.w3.org/2000/svg" xmlns:xlink="http://www.w3.org/1999/xlink">
    <!-- Generator: Sketch 59.1 (86144) - https://sketch.com -->
    <title>Path</title>
    <desc>Created with Sketch.</desc>
    <g id="Page-1" stroke="none" stroke-width="1" fill="none" fill-rule="evenodd">
        <g id="media01" transform="translate(-187.000000, -76.000000)" fill="#080D14" fill-rule="nonzero">
            <path d="M227.4,87.1 C224.6,87.1 222.3,84.8 222.3,82 C222.3,80 220.7,78.4 218.7,78.4 C216.7,78.4 215.1,80 215.1,82 C215.1,84.8 212.8,87.1 210,87.1 C207.2,87.1 204.9,84.8 204.9,82 C204.9,80 203.3,78.4 201.3,78.4 C199.3,78.4 197.7,80 197.7,82 C197.7,84.8 195.4,87.1 192.6,87.1 C189.8,87.1 187.5,84.8 187.5,82 C187.5,81.6 187.8,81.3 188.2,81.3 C188.6,81.3 188.9,81.6 188.9,82 C188.9,84 190.5,85.6 192.5,85.6 C194.5,85.6 196.1,84 196.1,82 C196.1,79.2 198.4,76.9 201.2,76.9 C204,76.9 206.3,79.2 206.3,82 C206.3,84 207.9,85.6 209.9,85.6 C211.9,85.6 213.5,84 213.5,82 C213.5,79.2 215.8,76.9 218.6,76.9 C221.4,76.9 223.7,79.2 223.7,82 C223.7,84 225.3,85.6 227.3,85.6 C229.3,85.6 230.9,84 230.9,82 C230.9,81.6 231.2,81.3 231.6,81.3 C232,81.3 232.3,81.6 232.3,82 C232.5,84.8 230.2,87.1 227.4,87.1 Z" id="Path"></path>
        </g>
    </g>
</svg>