<?xml version="1.0" encoding="UTF-8"?>
<svg width="46px" height="12px" viewBox="0 0 46 12" version="1.1" xmlns="http://www.w3.org/2000/svg" xmlns:xlink="http://www.w3.org/1999/xlink">
    <!-- Generator: Sketch 59.1 (86144) - https://sketch.com -->
    <title>Path</title>
    <desc>Created with Sketch.</desc>
    <g id="Page-1" stroke="none" stroke-width="1" fill="none" fill-rule="evenodd">
        <g id="media01" transform="translate(-187.000000, -62.000000)" fill="#FF8DAC" fill-rule="nonzero">
            <path d="M227.4,73.1 C224.6,73.1 222.3,70.8 222.3,68 C222.3,66 220.7,64.4 218.7,64.4 C216.7,64.4 215.1,66 215.1,68 C215.1,70.8 212.8,73.1 210,73.1 C207.2,73.1 204.9,70.8 204.9,68 C204.9,66 203.3,64.4 201.3,64.4 C199.3,64.4 197.7,66 197.7,68 C197.7,70.8 195.4,73.1 192.6,73.1 C189.8,73.1 187.5,70.8 187.5,68 C187.5,67.6 187.8,67.3 188.2,67.3 C188.6,67.3 188.9,67.6 188.9,68 C188.9,70 190.5,71.6 192.5,71.6 C194.5,71.6 196.1,70 196.1,68 C196.1,65.2 198.4,62.9 201.2,62.9 C204,62.9 206.3,65.2 206.3,68 C206.3,70 207.9,71.6 209.9,71.6 C211.9,71.6 213.5,70 213.5,68 C213.5,65.2 215.8,62.9 218.6,62.9 C221.4,62.9 223.7,65.2 223.7,68 C223.7,70 225.3,71.6 227.3,71.6 C229.3,71.6 230.9,70 230.9,68 C230.9,67.6 231.2,67.3 231.6,67.3 C232,67.3 232.3,67.6 232.3,68 C232.5,70.8 230.2,73.1 227.4,73.1 Z" id="Path"></path>
        </g>
    </g>
</svg>